# xmcd
#
# Track frame offsets:
#	150
#	15042
#	35830
#
# Disc length: 692 seconds
#
# Revision: 0
# Processed by: cddbd v1.5.2PL0 Copyright (c) Steve Scherf et al.
# Submitted via: audiograbber 1.83.01
#
DISCID=1602b203
DTITLE=Tom Astor - Renovier Deine Seele (Maxi)
DYEAR=1900
DGENRE=Country
TTITLE0=Renovier deine Seele
TTITLE1=Es wird immer wieder Tag
TTITLE2=Junger Adler (Ein Lied für (m)einen Sohn)
EXTD=
EXTT0=
EXTT1=
EXTT2=
PLAYORDER=
